<svg width="50" height="50" viewBox="0 0 50 50" fill="none" xmlns="http://www.w3.org/2000/svg">
<circle cx="25" cy="25" r="25" fill="#2196F3"/>
<path d="M30.6392 29.5396H33.7329C33.5718 31.022 33.1475 32.3486 32.46 33.5195C31.7725 34.6904 30.8003 35.6196 29.5435 36.3071C28.2866 36.9839 26.7183 37.3223 24.8384 37.3223C23.4634 37.3223 22.2119 37.0645 21.084 36.5488C19.9668 36.0332 19.0054 35.3027 18.1997 34.3574C17.394 33.4014 16.771 32.2573 16.3306 30.9253C15.9009 29.5825 15.686 28.0894 15.686 26.4458V24.1094C15.686 22.4658 15.9009 20.978 16.3306 19.646C16.771 18.3032 17.3994 17.1538 18.2158 16.1978C19.043 15.2417 20.0366 14.5059 21.1968 13.9902C22.3569 13.4746 23.6621 13.2168 25.1123 13.2168C26.8848 13.2168 28.3833 13.5498 29.6079 14.2158C30.8325 14.8818 31.7832 15.8057 32.46 16.9873C33.1475 18.1582 33.5718 19.5171 33.7329 21.064H30.6392C30.4888 19.9683 30.2095 19.0283 29.8013 18.2441C29.3931 17.4492 28.813 16.8369 28.061 16.4072C27.3091 15.9775 26.3262 15.7627 25.1123 15.7627C24.0703 15.7627 23.1519 15.9614 22.3569 16.3589C21.5728 16.7563 20.9121 17.3203 20.375 18.0508C19.8486 18.7812 19.4512 19.6567 19.1826 20.6772C18.9141 21.6978 18.7798 22.8311 18.7798 24.0771V26.4458C18.7798 27.5952 18.8979 28.6748 19.1343 29.6846C19.3813 30.6943 19.752 31.5806 20.2461 32.3433C20.7402 33.106 21.3687 33.7075 22.1313 34.1479C22.894 34.5776 23.7964 34.7925 24.8384 34.7925C26.1597 34.7925 27.2124 34.583 27.9966 34.1641C28.7808 33.7451 29.3716 33.1436 29.769 32.3594C30.1772 31.5752 30.4673 30.6353 30.6392 29.5396Z" fill="white"/>
</svg>
