<svg width="204" height="51" viewBox="0 0 204 51" fill="none" xmlns="http://www.w3.org/2000/svg">
<path d="M170.385 32.1856C170.385 32.1856 182.21 32.1856 189.786 32.1856M189.786 32.1856C197.504 30.8996 202.749 23.9023 201.912 16.0105C201.175 9.05665 199.487 6.51634 193.944 4.0549C191.865 3.13186 186.668 3 186.668 3H177.66M189.786 32.1856C192.763 38.5024 197.408 48.3608 197.408 48.3608" stroke="#F8B179" stroke-width="4"/>
<path d="M2 3V48.3608H18.4948" stroke="#F8B179" stroke-width="4"/>
<path d="M48.3918 25.6803H35.677L45.6426 5.06177L65.5739 48.0171" stroke="#F8B179" stroke-width="4"/>
<path d="M83.0996 48.3608V25.6675C83.0996 25.6675 94.263 26.076 100.282 22.1014C103.718 19.832 105.78 13.9966 105.78 13.9966" stroke="#F8B179" stroke-width="4"/>
<path d="M140.242 24.3054H122.962V48.3604H153.203" stroke="#F8B179" stroke-width="4"/>
<path d="M122.275 3L152.859 3" stroke="#F8B179" stroke-width="4"/>
</svg>
